<?xml version="1.0" encoding="UTF-8" standalone="no"?>
<!DOCTYPE svg PUBLIC "-//W3C//DTD SVG 1.1//EN" "http://www.w3.org/Graphics/SVG/1.1/DTD/svg11.dtd">
<svg width="100%" height="100%" viewBox="0 0 2833 2409" version="1.1" xmlns="http://www.w3.org/2000/svg" xmlns:xlink="http://www.w3.org/1999/xlink" xml:space="preserve" xmlns:serif="http://www.serif.com/" style="fill-rule:evenodd;clip-rule:evenodd;stroke-linejoin:round;stroke-miterlimit:2;">
    <g transform="matrix(5.55556,0,0,5.55556,0,0)">
        <g id="title" transform="matrix(0.63742,0,0,0.72268,0,0)">
            <rect x="0" y="0" width="800" height="600" style="fill:white;"/>
            <g transform="matrix(1.56883,0,0,1.65463,-6.00744,-96.5215)">
                <rect x="22.055" y="69.086" width="231.924" height="331.643" style="fill:rgb(255,109,74);"/>
            </g>
            <g transform="matrix(1.56883,0,0,1.38374,-6.00744,-64.4238)">
                <circle cx="135.169" cy="147.8" r="70.99" style="fill:rgb(247,247,247);"/>
            </g>
            <g transform="matrix(1.3894,0,0,1.22548,18.245,-41.0335)">
                <circle cx="135.169" cy="147.8" r="70.99" style="fill:rgb(255,109,74);"/>
            </g>
            <g transform="matrix(1.2704,0,0,1.12052,34.3301,-25.5203)">
                <circle cx="135.169" cy="147.8" r="70.99" style="fill:rgb(255,109,74);"/>
            </g>
            <g transform="matrix(1.00657,0,0,0.887814,69.9923,8.87411)">
                <circle cx="135.169" cy="147.8" r="70.99" style="fill:white;"/>
            </g>
            <g transform="matrix(0.691744,0,0,0.610133,112.546,49.9154)">
                <circle cx="135.169" cy="147.8" r="70.99" style="fill:rgb(255,109,74);"/>
            </g>
            <g transform="matrix(1.56883,0,0,1.38374,-6.00744,-77.8063)">
                <rect x="41.465" y="254.985" width="187.408" height="33.397" style="fill:rgb(247,247,247);"/>
            </g>
            <g transform="matrix(1.56883,0,0,1.38374,29.6267,-88.1947)">
                <text x="41.465px" y="282.885px" style="font-family:'Arial-BoldMT', 'Arial', sans-serif;font-weight:700;font-size:18px;fill:rgb(255,109,74);">REDESCRUBRE</text>
            </g>
            <g transform="matrix(1.56883,0,0,1.38374,-16.7639,-76.0125)">
                <text x="43.534px" y="315.726px" style="font-family:'ArialMT', 'Arial', sans-serif;font-size:16px;fill:white;">¿POR QUÉ IR (DE NUEVO)</text>
                <text x="90.616px" y="332.249px" style="font-family:'ArialMT', 'Arial', sans-serif;font-size:16px;fill:white;">A<tspan x="100.405px 104.85px 113.749px 123.538px 127.983px " y="332.249px 332.249px 332.249px 332.249px 332.249px "> LA I</tspan>GLESIA?</text>
            </g>
            <g transform="matrix(1.56883,0,0,1.38374,-13.4295,-96.6918)">
                <text x="280.88px" y="112.251px" style="font-family:'Arial-BoldMT', 'Arial', sans-serif;font-weight:700;font-size:36px;fill:rgb(255,109,74);">REDUSCU-</text>
                <text x="280.88px" y="161.429px" style="font-family:'Arial-BoldMT', 'Arial', sans-serif;font-weight:700;font-size:36px;fill:rgb(255,109,74);">BRIENDO</text>
                <text x="280.88px" y="210.607px" style="font-family:'Arial-BoldMT', 'Arial', sans-serif;font-weight:700;font-size:36px;fill:rgb(255,109,74);">LA<tspan x="327.533px 337.534px " y="210.607px 210.607px "> I</tspan>GLESIA</text>
                <text x="280.88px" y="259.784px" style="font-family:'Arial-BoldMT', 'Arial', sans-serif;font-weight:700;font-size:36px;fill:rgb(255,109,74);">HOY</text>
            </g>
            <g transform="matrix(1.56883,0,0,1.38374,-6.00744,-77.8063)">
                <text x="276.149px" y="406.754px" style="font-family:'Arial-BoldMT', 'Arial', sans-serif;font-weight:700;font-size:18px;fill:rgb(84,68,64);">REDISCOVER CHURCH</text>
            </g>
            <g transform="matrix(1.56883,0,0,1.38374,-6.00744,-108.706)">
                <text x="276.149px" y="461.137px" style="font-family:'ArialMT', 'Arial', sans-serif;font-size:18px;fill:rgb(84,68,64);">Why the body of christ is</text>
                <text x="276.149px" y="479.726px" style="font-family:'ArialMT', 'Arial', sans-serif;font-size:18px;fill:rgb(84,68,64);">essential?</text>
            </g>
            <g transform="matrix(1.56883,0,0,1.38374,-6.00744,-77.8063)">
                <text x="276.149px" y="297.164px" style="font-family:'ArialMT', 'Arial', sans-serif;font-size:24px;fill:rgb(84,68,64);">¿Qué es la Iglesia y</text>
                <text x="276.149px" y="321.949px" style="font-family:'ArialMT', 'Arial', sans-serif;font-size:24px;fill:rgb(84,68,64);">por qué debo ser de</text>
                <text x="276.149px" y="346.735px" style="font-family:'ArialMT', 'Arial', sans-serif;font-size:24px;fill:rgb(84,68,64);">ella?</text>
            </g>
            <g transform="matrix(1.56883,0,0,1.38374,-6.00744,-77.8063)">
                <rect x="276.149" y="372.497" width="201.138" height="4.058" style="fill:rgb(255,109,74);"/>
            </g>
        </g>
    </g>
</svg>
